<?xml version="1.0" standalone="no"?>
<!DOCTYPE svg PUBLIC "-//W3C//DTD SVG 20010904//EN"
 "http://www.w3.org/TR/2001/REC-SVG-20010904/DTD/svg10.dtd">
<svg version="1.0" xmlns="http://www.w3.org/2000/svg"
 width="1280.000000pt" height="1206.000000pt" viewBox="0 0 1280.000000 1206.000000"
 preserveAspectRatio="xMidYMid meet">
<metadata>
Created by potrace 1.15, written by Peter Selinger 2001-2017
</metadata>
<g transform="translate(0.000000,1206.000000) scale(0.100000,-0.100000)"
fill="#000000" stroke="none">
<path d="M8238 12012 c-46 -3 -47 -3 -42 -35 2 -18 15 -162 29 -322 14 -159
30 -337 35 -395 28 -302 51 -572 48 -575 -2 -1 -223 105 -493 237 -269 132
-559 273 -643 313 l-152 74 -20 -39 c-11 -22 -20 -41 -20 -44 0 -3 60 -34 133
-69 132 -64 1190 -579 1194 -581 1 -1 -11 -47 -27 -101 -15 -55 -97 -347 -180
-650 -84 -302 -162 -586 -175 -630 -25 -87 -24 -89 36 -100 l35 -7 39 139
c144 524 365 1316 367 1318 2 2 477 7 1056 11 l1052 7 0 48 0 48 -1050 -6
c-830 -5 -1050 -4 -1050 6 0 7 -9 110 -20 229 -11 119 -38 422 -60 672 -23
250 -42 454 -43 455 -1 0 -23 -1 -49 -3z"/>
<path d="M502 10288 c-23 -14 -31 -25 -27 -37 3 -9 211 -369 461 -800 250
-431 454 -787 452 -791 -2 -5 -309 -361 -683 -791 -374 -430 -681 -788 -683
-794 -2 -7 11 -25 29 -39 l32 -27 22 23 c17 17 1353 1556 1359 1565 1 0 291
-145 646 -322 355 -178 648 -324 651 -324 6 -1 39 65 39 79 0 5 -280 149 -622
321 -343 171 -627 315 -631 319 -4 4 154 177 352 384 199 208 361 381 361 385
0 4 -13 20 -30 36 -29 28 -30 28 -51 9 -12 -10 -177 -182 -368 -382 -336 -353
-346 -363 -361 -341 -8 12 -213 364 -456 782 -243 419 -445 762 -450 763 -5 1
-24 -7 -42 -18z"/>
<path d="M8815 8992 c-14 -31 -216 -475 -447 -987 -232 -511 -423 -932 -425
-934 -4 -5 -44 11 -477 191 -170 70 -310 128 -311 128 -9 0 -36 -82 -29 -89 5
-4 170 -74 367 -156 l357 -148 -292 -175 c-161 -96 -294 -176 -296 -178 -2 -1
8 -20 22 -43 l26 -40 325 195 325 195 748 -672 c411 -370 755 -679 765 -687
15 -14 19 -13 38 4 52 47 93 6 -718 735 -417 375 -759 685 -761 689 -1 3 22
60 52 125 149 332 829 1832 837 1846 6 12 -2 20 -36 37 l-44 21 -26 -57z"/>
<path d="M7590 8645 l0 -305 35 0 35 0 2 273 3 272 138 -272 137 -273 55 0 55
0 0 305 0 305 -35 0 -35 0 0 -271 0 -272 -137 272 -138 271 -57 0 -58 0 0
-305z"/>
<path d="M7313 8553 l-41 -24 50 -112 c28 -62 54 -115 58 -120 5 -6 76 16 88
28 4 4 -98 236 -107 246 -3 3 -25 -5 -48 -18z"/>
<path d="M7140 8458 c-19 -12 -36 -23 -38 -24 -1 -1 18 -49 44 -107 l47 -105
43 16 c24 9 44 20 44 24 0 13 -93 218 -99 218 -3 0 -22 -10 -41 -22z"/>
<path d="M6963 8359 c-18 -12 -33 -24 -33 -29 0 -8 69 -162 76 -169 2 -2 23 4
48 13 l44 17 -41 94 c-23 52 -46 95 -52 95 -5 0 -25 -10 -42 -21z"/>
<path d="M6793 8265 l-42 -25 26 -58 c43 -99 37 -93 88 -75 25 8 45 16 45 18
0 2 -17 39 -37 84 l-38 81 -42 -25z"/>
<path d="M8065 8208 c-22 -11 -41 -22 -43 -23 -5 -4 152 -315 159 -315 3 0 16
23 29 51 l24 50 -64 129 -65 128 -40 -20z"/>
<path d="M6617 8169 c-32 -17 -37 -24 -31 -42 11 -37 44 -97 53 -97 9 0 74 21
80 26 5 4 -52 134 -59 134 -3 -1 -22 -10 -43 -21z"/>
<path d="M5450 7861 l0 -311 35 0 35 0 0 273 0 272 25 -70 c14 -38 57 -157 97
-263 l73 -193 34 3 c32 3 35 6 61 78 16 41 60 158 99 260 l70 185 1 -272 0
-273 35 0 35 0 0 311 0 310 -52 -3 -53 -3 -100 -263 -99 -262 -23 67 c-12 38
-56 156 -97 263 l-74 195 -51 3 -51 3 0 -310z"/>
<path d="M2920 7800 l0 -310 35 0 35 0 1 278 0 277 140 -278 140 -278 52 3 52
3 3 308 2 307 -35 0 -35 0 0 -277 0 -278 -139 275 -139 275 -56 3 -56 3 0
-311z"/>
<path d="M6290 7945 c-134 -60 -168 -239 -66 -341 163 -164 405 34 300 245
-46 92 -149 134 -234 96z m136 -62 c68 -44 72 -198 7 -256 -11 -10 -37 -20
-57 -24 -83 -13 -141 49 -141 154 0 71 20 107 76 136 37 19 77 15 115 -10z"/>
<path d="M3510 7825 l0 -45 915 0 915 0 0 45 0 45 -915 0 -915 0 0 -45z"/>
<path d="M2422 7751 c-4 -13 -75 -232 -158 -487 -82 -255 -151 -464 -154 -464
-3 0 -106 203 -230 450 -124 248 -226 450 -228 450 -9 0 -82 -41 -82 -46 0 -4
116 -234 257 -512 l257 -506 93 -1020 93 -1020 248 -472 249 -472 91 -663 c51
-364 94 -664 96 -667 3 -2 25 0 49 4 l43 9 -88 641 -89 641 119 525 120 525
-100 1024 -99 1024 82 300 c45 165 84 305 86 312 4 10 -52 33 -82 33 -6 0 -40
-108 -75 -240 -36 -132 -67 -240 -70 -240 -3 0 -98 201 -212 447 -174 376
-208 444 -216 424z m208 -636 l181 -390 79 -820 c44 -451 89 -912 100 -1025
l21 -206 -100 -438 c-55 -241 -102 -440 -104 -442 -2 -2 -103 184 -223 414
l-220 417 -94 1030 -93 1030 96 295 c52 162 113 348 133 412 21 65 39 116 40
115 2 -2 84 -178 184 -392z"/>
<path d="M2358 6919 l-86 -242 30 -49 c17 -27 33 -46 36 -43 3 3 43 109 88
236 l82 230 -30 54 c-16 30 -30 55 -31 55 -1 0 -41 -109 -89 -241z"/>
<path d="M2627 6577 c-32 -43 -37 -58 -33 -87 3 -19 40 -381 81 -805 42 -423
78 -779 80 -791 5 -22 105 -153 105 -138 2 28 -185 1874 -190 1874 -3 0 -22
-24 -43 -53z"/>
<path d="M2497 4790 c-3 -8 -10 -44 -15 -79 l-11 -63 127 -237 127 -236 14 75
14 75 -126 240 c-69 131 -128 233 -130 225z"/>
<path d="M8398 7546 l-27 -54 135 -260 c74 -143 134 -265 134 -270 0 -5 -35
-38 -77 -72 -43 -35 -82 -67 -87 -72 -10 -8 40 -68 57 -68 4 0 47 32 94 71 47
38 91 68 97 66 10 -5 635 -295 1356 -631 l315 -147 380 -778 c208 -429 378
-783 376 -788 -4 -14 -824 -733 -836 -733 -6 0 -128 45 -271 101 -142 55 -405
157 -584 226 -179 70 -453 176 -609 237 l-283 111 -390 824 c-333 707 -386
825 -373 835 8 6 111 90 229 186 l215 175 -35 33 c-30 28 -37 31 -52 20 -10
-7 -124 -100 -253 -206 l-235 -193 34 -72 c19 -40 196 -416 394 -837 198 -421
364 -772 369 -781 7 -14 -55 -77 -310 -320 -176 -167 -320 -309 -320 -315 -1
-5 13 -23 29 -39 l30 -29 48 45 c26 25 151 144 277 264 127 120 253 240 280
266 l50 47 125 -49 c118 -47 266 -105 790 -309 124 -48 342 -134 485 -190 143
-56 288 -112 322 -125 l62 -24 442 391 442 390 206 -92 c113 -50 453 -202 754
-337 302 -135 549 -243 550 -241 13 19 37 81 34 84 -4 4 -754 340 -1242 557
-137 61 -255 114 -261 119 -6 4 -186 367 -399 805 -213 439 -393 803 -399 809
-6 7 -397 191 -868 410 l-858 399 -129 255 c-72 140 -143 278 -158 307 l-29
52 -26 -53z"/>
<path d="M6297 7344 c-19 -10 -27 -21 -24 -32 4 -17 247 -563 253 -571 2 -2
54 29 115 70 62 41 116 77 122 81 10 6 -410 466 -428 467 -5 0 -23 -7 -38 -15z"/>
<path d="M8678 6700 l-47 -37 33 -32 c17 -17 35 -31 40 -31 10 0 106 81 106
90 0 3 -19 15 -43 27 l-43 21 -46 -38z"/>
<path d="M6710 6381 l0 -309 33 3 32 2 3 271 2 272 138 -272 137 -272 53 1
c28 0 52 3 52 7 0 3 0 141 0 306 l0 300 -30 0 -30 0 -2 -272 -3 -273 -138 273
-137 272 -55 0 -55 0 0 -309z"/>
<path d="M8150 6269 c-102 -83 -184 -156 -182 -161 2 -6 11 -26 20 -44 l17
-34 175 141 c96 78 188 152 204 166 l29 24 -28 30 c-16 16 -34 29 -40 29 -6 0
-94 -68 -195 -151z"/>
<path d="M10220 5955 l-34 -35 188 -382 c104 -211 254 -517 334 -680 80 -164
148 -298 151 -298 3 0 20 14 38 30 l32 29 -330 678 c-182 373 -334 681 -338
686 -4 4 -22 -9 -41 -28z"/>
<path d="M6760 5935 c0 -4 -47 -188 -104 -409 -58 -220 -146 -561 -196 -756
-51 -195 -97 -360 -104 -367 -6 -6 -362 -192 -790 -412 l-780 -400 -123 -413
c-201 -674 -410 -1377 -450 -1512 -5 -18 -184 -108 -1381 -697 l-383 -188 21
-40 c11 -23 24 -41 27 -41 4 0 396 191 870 425 475 234 867 425 871 425 5 0
237 -240 517 -534 l508 -534 61 28 c33 15 383 177 776 360 393 183 720 334
726 336 8 4 695 -699 1096 -1121 l67 -70 35 35 35 35 -575 595 c-316 327 -574
599 -574 604 0 5 128 443 285 972 157 529 285 966 285 972 0 9 -567 648 -948
1069 l-74 83 67 257 c36 142 125 482 196 756 71 273 129 503 129 511 0 8 -12
17 -27 20 -16 4 -36 9 -45 12 -10 3 -18 2 -18 -1z m168 -2224 c248 -277 448
-509 446 -516 -3 -7 -130 -434 -283 -950 l-278 -938 -763 -354 -763 -355 -38
39 c-21 21 -242 253 -492 516 l-454 478 29 97 c61 203 243 815 426 1431 l109
365 763 392 764 392 41 -46 c23 -26 245 -274 493 -551z"/>
<path d="M5870 3859 c-245 -127 -536 -278 -647 -335 l-203 -105 20 -40 c11
-21 24 -39 28 -39 9 0 1280 654 1289 664 7 6 -27 86 -36 86 -3 0 -206 -104
-451 -231z"/>
<path d="M7037 3163 c-2 -5 -62 -195 -132 -423 -71 -228 -185 -599 -255 -825
l-126 -410 30 -12 c62 -23 57 -31 144 250 45 144 160 518 257 831 97 312 175
569 173 571 -6 4 -71 25 -79 25 -4 0 -10 -3 -12 -7z"/>
<path d="M4481 1686 l-34 -35 328 -348 c181 -191 368 -390 417 -441 l89 -92
35 26 c19 15 33 31 32 35 -3 7 -828 889 -833 889 0 0 -16 -15 -34 -34z"/>
<path d="M8771 4673 c-17 -20 -29 -38 -27 -40 1 -2 90 -38 197 -82 107 -43
316 -128 464 -189 149 -61 398 -162 554 -226 l284 -116 39 32 c22 17 36 34 31
38 -4 5 -80 37 -168 73 -88 36 -338 138 -555 227 -610 250 -781 320 -785 320
-2 0 -17 -17 -34 -37z"/>
</g>
</svg>
